# xmcd
#
# Track frame offsets:
#	150
#	13256
#	23417
#	36752
#	51659
#	67473
#	76851
#	89261
#	102611
#	116716
#	132462
#	143019
#	154565
#	168880
#	179579
#
# Disc length: 2535 seconds
#
# Revision: 0
# Processed by: cddbd v1.5.2PL0 Copyright (c) Steve Scherf et al.
# Submitted via: EasyCDDAExtractor 11.1.0.1
#
DISCID=d009e50f
DTITLE=Kenny Rogers - Kenny Rogers Special Edition
DYEAR=2008
DGENRE=country
TTITLE0=Ruby don't take your love to town
TTITLE1=Neew design
TTITLE2=It's gonna be better
TTITLE3=Heed the call
TTITLE4=I found a reason
TTITLE5=Once again she's all alone
TTITLE6=Shadow in the corner of your mind
TTITLE7=Sleep comes easy
TTITLE8=Sunshine
TTITLE9=The way it used to be
TTITLE10=Ticket to nowhere
TTITLE11=Me and Bobby McGee
TTITLE12=It's raining in my mind
TTITLE13=Homemade lies
TTITLE14=She even woke me up to say goodbye
EXTD=
EXTT0=
EXTT1=
EXTT2=
EXTT3=
EXTT4=
EXTT5=
EXTT6=
EXTT7=
EXTT8=
EXTT9=
EXTT10=
EXTT11=
EXTT12=
EXTT13=
EXTT14=
PLAYORDER=
